<?xml version="1.0" encoding="UTF-8" standalone="no"?>
<svg
   xmlns:dc="http://purl.org/dc/elements/1.1/"
   xmlns:cc="http://creativecommons.org/ns#"
   xmlns:rdf="http://www.w3.org/1999/02/22-rdf-syntax-ns#"
   xmlns:svg="http://www.w3.org/2000/svg"
   xmlns="http://www.w3.org/2000/svg"
   xmlns:xlink="http://www.w3.org/1999/xlink"
   xmlns:sodipodi="http://sodipodi.sourceforge.net/DTD/sodipodi-0.dtd"
   xmlns:inkscape="http://www.inkscape.org/namespaces/inkscape"
   id="svg2"
   viewBox="0 0 206.64719 206.76935"
   height="206.76935"
   width="206.6472"
   y="0px"
   x="0px"
   preserveAspectRatio="none"
   version="1.1"
   inkscape:version="0.91 r13725"
   sodipodi:docname="icon.svg">
  <sodipodi:namedview
     pagecolor="#ffffff"
     bordercolor="#666666"
     borderopacity="1"
     objecttolerance="10"
     gridtolerance="10"
     guidetolerance="10"
     inkscape:pageopacity="0"
     inkscape:pageshadow="2"
     inkscape:window-width="1920"
     inkscape:window-height="1017"
     id="namedview2661"
     showgrid="false"
     inkscape:zoom="2.9794974"
     inkscape:cx="204.1235"
     inkscape:cy="89.234862"
     inkscape:window-x="1912"
     inkscape:window-y="-8"
     inkscape:window-maximized="1"
     inkscape:current-layer="svg2"
     fit-margin-top="0"
     fit-margin-left="0"
     fit-margin-right="0"
     fit-margin-bottom="0" />
  <metadata
     id="metadata7273">
    <rdf:RDF>
      <cc:Work
         rdf:about="">
        <dc:format>image/svg+xml</dc:format>
        <dc:type
           rdf:resource="http://purl.org/dc/dcmitype/StillImage" />
        <dc:title></dc:title>
      </cc:Work>
    </rdf:RDF>
  </metadata>
  <defs
     id="defs4">
    <g
       id="Layer0_26_MEMBER_0_MEMBER_0_FILL">
      <path
         style="fill:#c99869;stroke:none"
         id="path812"
         d="m 58.5,145.3 -9.25,-15.85 -7.85,4.45 0,0.05 -1.4,0.85 0,1.2 55.45,32 0,-1.3 -1.4,-2.4 q 0.05,0.05 0.05,0 l -7.9,-13.5 -9.2,5.15 -9.25,-15.8 -9.25,5.15 m 0,-27.4 -9.25,-15.9 -9.25,5.2 0,7.3 q 4.05,-2.25 8.05,-4.55 l 1.2,-0.6 9.25,15.85 9.25,-5.15 9.2,15.8 9.25,-5.15 9.25,15.8 0,-7.3 -9.25,-15.85 -9.25,5.2 -9.2,-15.85 -9.25,5.2 z"
         inkscape:connector-curvature="0" />
      <path
         style="fill:#c58f5c;stroke:none"
         id="path814"
         d="m 41.4,127.5 0,0.05 -1.4,0.85 0,6.4 1.4,-0.85 0,-0.05 7.85,-4.45 9.25,15.85 9.25,-5.15 9.25,15.8 9.2,-5.15 7.9,13.5 q 0,0.05 -0.05,0 l 1.4,2.4 0,-6.4 -1.4,-2.4 q 0.05,0.05 0.05,0 l -7.9,-13.5 -9.2,5.15 -9.25,-15.8 -9.25,5.15 -9.25,-15.85 -7.85,4.45 m 7.85,-34.65 -9.25,5.2 0,9.15 9.25,-5.2 9.25,15.9 9.25,-5.2 9.2,15.85 9.25,-5.2 9.25,15.85 0,-9.15 -9.25,-15.85 -9.25,5.2 -9.2,-15.85 -9.25,5.2 -9.25,-15.9 z"
         inkscape:connector-curvature="0" />
      <path
         style="fill:#bd8958;stroke:none"
         id="path816"
         d="m 49.25,109.35 -1.2,0.6 q -4,2.3 -8.05,4.55 l 0,13.9 1.4,-0.85 0,-0.05 7.85,-4.45 9.25,15.85 9.25,-5.15 9.25,15.8 9.2,-5.15 7.9,13.5 q 0,0.05 -0.05,0 l 1.4,2.4 0,-13.8 -9.25,-15.8 -9.25,5.15 -9.2,-15.8 -9.25,5.15 -9.25,-15.85 z"
         inkscape:connector-curvature="0" />
      <path
         style="fill:#8bc92a;stroke:none"
         id="path818"
         d="m 40,88 0,4.1 9.25,-2.65 9.25,13.35 9.25,-2.65 9.2,13.3 9.25,-2.65 9.25,13.3 0,-4.1 -9.25,-11.7 -9.25,1.05 -9.2,-11.7 L 58.5,98.7 49.25,86.95 40,88 Z"
         inkscape:connector-curvature="0" />
      <path
         style="fill:#80be1f;stroke:none"
         id="path820"
         d="m 40,72 0,16 9.25,-1.05 9.25,11.75 9.25,-1.05 9.2,11.7 9.25,-1.05 9.25,11.7 0,-16 L 40,72 Z"
         inkscape:connector-curvature="0" />
      <path
         style="fill:#bb8044;stroke:none"
         id="path822"
         d="m 40,92.1 0,5.95 9.25,-5.2 9.25,15.9 9.25,-5.2 9.2,15.85 9.25,-5.2 9.25,15.85 0,-5.95 -9.25,-13.3 -9.25,2.65 -9.2,-13.3 L 58.5,102.8 49.25,89.45 40,92.1 Z"
         inkscape:connector-curvature="0" />
    </g>
    <g
       id="Layer0_26_MEMBER_0_MEMBER_1_FILL">
      <path
         style="fill:#bd8958;stroke:none"
         id="path825"
         d="m 123.2,133.7 9.25,5.15 9.2,-15.8 7.9,4.4 q 0,0.05 -0.05,0.05 l 1.4,0.8 0,-13.8 -9.25,-5.15 -9.25,15.85 -9.2,-5.2 -9.25,15.85 -9.25,-5.15 -1.2,1.95 q -4,6.95 -8.05,13.85 l 0,13.9 1.4,-2.45 0,-0.05 7.85,-13.55 9.25,5.2 9.25,-15.85 z"
         inkscape:connector-curvature="0" />
      <path
         style="fill:#c99869;stroke:none"
         id="path827"
         d="m 141.65,129.45 -9.2,15.8 -9.25,-5.15 -9.25,15.85 -9.25,-5.2 -7.85,13.55 0,0.05 -1.4,2.45 0,1.2 55.45,-32 0,-1.3 -1.4,-0.8 q 0.05,0 0.05,-0.05 l -7.9,-4.4 m 9.25,-14.95 0,-7.3 -9.25,-5.2 -9.25,15.9 -9.2,-5.25 -9.25,15.9 -9.25,-5.2 -9.25,15.85 0,7.3 q 4.05,-6.9 8.05,-13.85 l 1.2,-1.95 9.25,5.15 9.25,-15.85 9.2,5.2 9.25,-15.85 9.25,5.15 z"
         inkscape:connector-curvature="0" />
      <path
         style="fill:#c58f5c;stroke:none"
         id="path829"
         d="m 132.45,145.25 9.2,-15.8 7.9,4.4 q 0,0.05 -0.05,0.05 l 1.4,0.8 0,-6.4 -1.4,-0.8 q 0.05,0 0.05,-0.05 l -7.9,-4.4 -9.2,15.8 -9.25,-5.15 -9.25,15.85 -9.25,-5.2 -7.85,13.55 0,0.05 -1.4,2.45 0,6.4 1.4,-2.45 0,-0.05 7.85,-13.55 9.25,5.2 9.25,-15.85 9.25,5.15 m 18.45,-47.2 -9.25,-5.2 -9.25,15.9 -9.2,-5.25 -9.25,15.9 -9.25,-5.2 -9.25,15.85 0,9.15 9.25,-15.85 9.25,5.2 9.25,-15.9 9.2,5.25 9.25,-15.9 9.25,5.2 0,-9.15 z"
         inkscape:connector-curvature="0" />
      <path
         style="fill:#bb8044;stroke:none"
         id="path831"
         d="m 141.65,92.85 9.25,5.2 0,-5.95 -9.25,-2.65 -9.25,13.35 -9.2,-2.7 -9.25,13.35 -9.25,-2.65 -9.25,13.3 0,5.95 9.25,-15.85 9.25,5.2 9.25,-15.9 9.2,5.25 9.25,-15.9 z"
         inkscape:connector-curvature="0" />
      <path
         style="fill:#80be1f;stroke:none"
         id="path833"
         d="m 141.65,86.95 9.25,1.05 0,-16 -55.45,32 0,16 9.25,-11.7 9.25,1.05 9.25,-11.75 9.2,1.1 9.25,-11.75 z"
         inkscape:connector-curvature="0" />
      <path
         style="fill:#8bc92a;stroke:none"
         id="path835"
         d="m 150.9,88 -9.25,-1.05 -9.25,11.75 -9.2,-1.1 -9.25,11.75 -9.25,-1.05 -9.25,11.7 0,4.1 9.25,-13.3 9.25,2.65 9.25,-13.35 9.2,2.7 9.25,-13.35 9.25,2.65 0,-4.1 z"
         inkscape:connector-curvature="0" />
    </g>
    <g
       id="Layer0_26_MEMBER_0_MEMBER_2_FILL">
      <path
         style="fill:#80be1f;stroke:none"
         id="path838"
         d="M 150.9,72 95.45,40 40,72 95.45,104 150.9,72 Z"
         inkscape:connector-curvature="0" />
    </g>
    <g
       id="Layer0_26_MEMBER_1_FILL">
      <path
         style="fill:#000000;fill-opacity:0.10196078;stroke:none"
         id="path841"
         d="m 96.45,105.45 0,62 54.45,-31.45 0,-62 -54.45,31.45 z"
         inkscape:connector-curvature="0" />
      <path
         style="fill:#ffffff;fill-opacity:0.10196078;stroke:none"
         id="path843"
         d="M 150.9,72 95.45,40 40,72 95.45,104 150.9,72 Z"
         inkscape:connector-curvature="0" />
      <path
         style="fill:#ffffff;fill-opacity:0.2;stroke:none"
         id="path845"
         d="m 150.9,74 0,-2 L 95.45,104 40,72 l 0,2 54.45,31.45 0,62 1,0.55 1,-0.55 0,-62 L 150.9,74 Z"
         inkscape:connector-curvature="0" />
    </g>
  </defs>
  <path
     inkscape:connector-curvature="0"
     style="fill:#b18053;fill-opacity:1"
     d="M 92.733948,206.4057 C 57.865343,202.85834 26.503695,181.25997 10.872979,150.02909 5.5939745,139.4814 2.3684635,129.11465 0.51477727,116.73793 c -0.6863697,-4.58274 -0.6863697,-22.125424 0,-26.708164 C 3.2354405,71.864421 9.7383368,55.726876 19.81819,42.126545 37.660715,18.052358 64.227236,3.069481 94.008638,0.284921 100.01505,-0.27668 112.44566,0.029478 117.93743,0.874273 c 22.77425,3.503332 42.58591,13.444205 58.4903,29.348593 15.88354,15.883534 26.02903,36.112904 29.37128,58.5642 0.82284,5.52743 1.11811,17.957094 0.56666,23.854894 -4.64126,49.63923 -43.61054,88.89371 -93.10167,93.78305 -4.73172,0.46746 -15.848182,0.457 -20.530052,-0.0193 z"
     id="path6937" />
  <g
     id="g6807"
     transform="translate(-7.1571779,19.453764)"
     style="fill:#ff2b2b;fill-opacity:1"
     inkscape:export-xdpi="203.743"
     inkscape:export-ydpi="203.743">
    <g
       id="g5063"
       transform="translate(13.904981,-19.495378)"
       style="fill:#ff2b2b;fill-opacity:1">
      <use
         height="100%"
         width="100%"
         y="0"
         x="0"
         xlink:href="#Layer0_26_MEMBER_0_MEMBER_0_FILL"
         id="use5065"
         style="fill:#ff2b2b;fill-opacity:1" />
    </g>
    <g
       id="g5067"
       transform="translate(13.904981,-19.495378)"
       style="fill:#ff2b2b;fill-opacity:1">
      <use
         height="100%"
         width="100%"
         y="0"
         x="0"
         xlink:href="#Layer0_26_MEMBER_0_MEMBER_1_FILL"
         id="use5069"
         style="fill:#ff2b2b;fill-opacity:1" />
    </g>
    <g
       id="g5071"
       transform="translate(13.904981,-19.495378)"
       style="fill:#ff2b2b;fill-opacity:1">
      <use
         height="100%"
         width="100%"
         y="0"
         x="0"
         xlink:href="#Layer0_26_MEMBER_0_MEMBER_2_FILL"
         id="use5073"
         style="fill:#ff2b2b;fill-opacity:1" />
    </g>
    <g
       id="g5075"
       transform="translate(13.904981,-19.495378)"
       style="fill:#ff2b2b;fill-opacity:1">
      <use
         height="100%"
         width="100%"
         y="0"
         x="0"
         xlink:href="#Layer0_26_MEMBER_1_FILL"
         id="use5077"
         style="fill:#ff2b2b;fill-opacity:1" />
    </g>
  </g>
</svg>
